<?xml version="1.0" encoding="UTF-8" standalone="yes"?>
<svg version="1.1" id="Layer_1" xmlns="http://www.w3.org/2000/svg" xmlns:xlink="http://www.w3.org/1999/xlink" x="0px" y="0px" viewBox="0 0 153.8 315" style="enable-background:new 0 0 153.8 315;" xml:space="preserve">
      <style type="text/css">.st0{fill:url(#SVGID_1_);}	.st1{fill:url(#SVGID_2_);}	.st2{fill:url(#SVGID_3_);}	.st3{fill:url(#SVGID_4_);}	.st4{fill:url(#SVGID_5_);}	.st5{fill:url(#SVGID_6_);}	.st6{fill:url(#SVGID_7_);}	.st7{fill:url(#SVGID_8_);}</style>
    <g id="color_index_g">
              <linearGradient id="SVGID_1_" gradientUnits="userSpaceOnUse" x1="-10" y1="85.5259" x2="222.7767" y2="85.5259">
                      <stop offset="0" style="stop-color:#173fbc"/>
            <stop offset="0.9946" style="stop-color:#f65648"/>
                  </linearGradient>
        <linearGradient id="SVGID_2_" gradientUnits="userSpaceOnUse" x1="-10" y1="76.2874" x2="222.7767" y2="76.2874">
                      <stop offset="0" style="stop-color:#173fbc"/>
            <stop offset="0.9946" style="stop-color:#f65648"/>
                  </linearGradient>
        <linearGradient id="SVGID_3_" gradientUnits="userSpaceOnUse" x1="-10" y1="110.906" x2="222.7767" y2="110.906">
                      <stop offset="0" style="stop-color:#173fbc"/>
            <stop offset="0.9946" style="stop-color:#f65648"/>
                  </linearGradient>
        <linearGradient id="SVGID_4_" gradientUnits="userSpaceOnUse" x1="-10" y1="110.8853" x2="222.7767" y2="110.8853">
                      <stop offset="0" style="stop-color:#173fbc"/>
            <stop offset="0.9946" style="stop-color:#f65648"/>
                  </linearGradient>
        <linearGradient id="SVGID_5_" gradientUnits="userSpaceOnUse" x1="-10" y1="157.5" x2="222.7767" y2="157.5">
                      <stop offset="0" style="stop-color:#173fbc"/>
            <stop offset="0.9946" style="stop-color:#f65648"/>
                  </linearGradient>
        <linearGradient id="SVGID_6_" gradientUnits="userSpaceOnUse" x1="-10" y1="138.8974" x2="222.7767" y2="138.8974">
                      <stop offset="0" style="stop-color:#173fbc"/>
            <stop offset="0.9946" style="stop-color:#f65648"/>
                  </linearGradient>
        <linearGradient id="SVGID_7_" gradientUnits="userSpaceOnUse" x1="-10" y1="101.7302" x2="222.7767" y2="101.7302">
                      <stop offset="0" style="stop-color:#173fbc"/>
            <stop offset="0.9946" style="stop-color:#f65648"/>
                  </linearGradient>
        <linearGradient id="SVGID_8_" gradientUnits="userSpaceOnUse" x1="-10" y1="101.7047" x2="222.7767" y2="101.7047">
                      <stop offset="0" style="stop-color:#173fbc"/>
            <stop offset="0.9946" style="stop-color:#f65648"/>
                  </linearGradient>
        <path class="st0" d="M63.9,86.3c-2.2-2.2-5-3.9-8-4.7c-2.9-0.8-5.8-1.1-8.8-1c-0.7,0-1.2,0.5-1.2,1.2l0,0c0,0.7,0.5,1.2,1.2,1.2&#xD;&#xA;&#x9;&#x9;c1.3,0.1,2.6,0.4,3.9,0.7c1.2,0.3,2.4,0.8,3.6,1.3c2.2,0.9,4.1,2.4,5.5,4.4l0.2,0.3c1,1,2.6,1,3.6,0.1&#xD;&#xA;&#x9;&#x9;C64.9,88.9,64.9,87.3,63.9,86.3L63.9,86.3z"/>
        <path class="st1" d="M107.2,75.1c-1.3-1-2.7-1.8-4.2-2.3c-1.6-0.4-3.2-0.6-4.8-0.6c-1.6,0.1-3.2,0.4-4.8,0.9h-0.3&#xD;&#xA;&#x9;&#x9;c-1.3,0.4-2,1.8-1.6,3.1c0,0,0,0,0,0.1c0.4,1.3,1.7,2,3,1.6c0.1,0,0.1,0,0.2-0.1l0.5-0.2l0,0c1-0.5,2.2-0.9,3.3-1.1&#xD;&#xA;&#x9;&#x9;c1.1-0.2,2.3-0.2,3.4,0c1.2,0.1,2.4,0.6,3.4,1.2c1.1,0.6,2,1.3,2.8,2.2h0.2c0.3,0.5,1,0.6,1.5,0.3c0.6-0.3,0.8-1.1,0.5-1.7&#xD;&#xA;&#x9;&#x9;C109.5,77.2,108.4,76.1,107.2,75.1z"/>
        <path class="st2" d="M21.2,104.6c-0.9-0.6-2.1-0.5-3,0.2c-0.8,0.9-1.5,1.9-2,3c-0.6,1.2-0.8,2.5-0.7,3.8c0.2,1.2,0.6,2.4,1.3,3.4&#xD;&#xA;&#x9;&#x9;c0.6,1,1.3,1.8,2.2,2.5v-0.2c0.4,0.4,1.1,0.4,1.5,0c0.5-0.4,0.6-1.2,0.2-1.7c0,0,0,0,0,0l0,0c-0.4-0.7-0.8-1.4-1.1-2.1&#xD;&#xA;&#x9;&#x9;c-0.3-0.6-0.4-1.3-0.3-2c0.1-0.6,0.3-1.2,0.7-1.6c0.4-0.5,0.9-1,1.5-1.4l0.4-0.4C22.7,107,22.4,105.4,21.2,104.6&#xD;&#xA;&#x9;&#x9;C21.2,104.6,21.2,104.6,21.2,104.6z"/>
        <path class="st3" d="M135.6,104.8h-0.2c-0.9-1-2.5-1-3.5-0.1c-1,0.9-1.1,2.4-0.2,3.4c0,0,0.1,0.1,0.1,0.1c0.1,0.2,0.2,0.3,0.4,0.4&#xD;&#xA;&#x9;&#x9;l1.4,1.4c0.4,0.5,0.7,1.1,0.8,1.8c0.2,0.6,0.1,1.3-0.1,1.9c-0.3,0.8-0.7,1.4-1.3,2c-0.3,0.5-0.3,1,0,1.5c0.4,0.6,1.2,0.7,1.8,0.3&#xD;&#xA;&#x9;&#x9;c0.9-0.7,1.7-1.6,2.3-2.5c0.7-1.1,1.1-2.3,1.2-3.5c0-1.2-0.2-2.5-0.7-3.6C137.1,106.8,136.4,105.7,135.6,104.8z"/>
        <path class="st4" d="M144.7,33.6C136,18.3,117.2,0,76.9,0S17.7,18.3,9.1,33.7C-4.1,56.9-1.5,86,7.6,102.4c-1.7,2.8-2.6,6-2.6,9.2&#xD;&#xA;&#x9;&#x9;c-0.1,4.6,1.7,9.1,5,12.3c3.2,3.2,7.5,5.1,12,5.2c2.4,11.9,6.6,21.6,12.6,29c-21.1,8-24.7,27.1-24.7,67.6&#xD;&#xA;&#x9;&#x9;c0,10.5,9.9,20.4,21.3,22.1l-1.8,29.8c-0.1,0.7,0.2,1.4,0.6,1.9c0.5,0.5,1.2,0.8,1.9,0.8h2.6l-1.4,20.5c-2.5,3.3-4.4,7-5.7,11&#xD;&#xA;&#x9;&#x9;c-0.2,0.8-0.1,1.6,0.4,2.2c0.5,0.6,1.2,1,2,1H124c0.8,0,1.5-0.4,2-1c0.5-0.6,0.6-1.4,0.4-2.2c-1.3-4-3.2-7.7-5.7-11l-1.5-20.5h2.7&#xD;&#xA;&#x9;&#x9;c0.7,0,1.3-0.3,1.8-0.8c0.5-0.5,0.8-1.2,0.7-1.9l-1.8-29.8c11.4-1.6,21.3-11.6,21.3-22.1c0-40.5-3.6-59.7-24.6-67.6&#xD;&#xA;&#x9;&#x9;c5.9-7.5,10.1-17.3,12.4-29.1c8.7-0.1,16-6.7,17-15.3c0.1-0.7,0.1-1.5,0.1-2.2c0-3.2-0.9-6.4-2.6-9.1&#xD;&#xA;&#x9;&#x9;C155.3,85.9,157.8,56.8,144.7,33.6z M31.5,242.8c-8.8-1.5-16.6-9.2-16.6-17.1c0-39.6,3.3-56,21.3-63L31.5,242.8z M33.4,310&#xD;&#xA;&#x9;&#x9;c1-2.4,2.4-4.6,4-6.7c5-6.2,12.2-9.1,19.3-7.8S69.8,302,73.3,310H33.4z M74.4,302c-4.3-6.1-10.1-10.2-16.8-11.4&#xD;&#xA;&#x9;&#x9;c-6.8-1.2-13.8,0.5-19.2,4.8l1.1-15.1h34.9V302z M120.4,310H80.5c3.5-8,9.4-13.2,16.6-14.5s14.3,1.6,19.3,7.8&#xD;&#xA;&#x9;&#x9;C118,305.4,119.4,307.6,120.4,310z M79.4,302v-21.7h34.9l1.1,15.1c-5.4-4.3-12.4-6-19.2-4.8C89.5,291.8,83.6,295.9,79.4,302z&#xD;&#xA;&#x9;&#x9; M79.4,275.3V258c0-1.4-1.1-2.5-2.5-2.5s-2.5,1.1-2.5,2.5v17.3H34.5l2.1-34.7h80.6l2.1,34.7H79.4z M76.9,195.9&#xD;&#xA;&#x9;&#x9;c12.3,0,22.3-10,22.3-22.3v-1.1c4.9-1.8,9.5-4.4,13.5-7.7l4.2,70.8h-80l4.2-70.9c4,3.3,8.6,6,13.5,7.8v1.1&#xD;&#xA;&#x9;&#x9;C54.6,185.9,64.6,195.9,76.9,195.9L76.9,195.9z M59.6,174c11.4,2.9,23.2,2.9,34.6,0c0,9.6-7.7,17.3-17.3,17.3&#xD;&#xA;&#x9;&#x9;C67.3,191.3,59.6,183.6,59.6,174C59.6,174,59.6,174,59.6,174z M138.9,225.7c0,7.9-7.8,15.6-16.6,17.1l-4.7-80.1&#xD;&#xA;&#x9;&#x9;C135.6,169.6,138.9,186.1,138.9,225.7z M143.8,113.1c-0.8,6.8-7,11.6-13.8,10.8c-1.3-0.1-2.5,0.8-2.7,2.1&#xD;&#xA;&#x9;&#x9;c-2.4,13.5-7.2,24.1-14.2,31.6c-4.7,5-10.6,8.7-17.2,10.8c-12.3,3.8-25.5,3.8-37.9,0.1c-6.6-2.1-12.5-5.9-17.2-10.9&#xD;&#xA;&#x9;&#x9;c-7.1-7.3-11.9-18-14.3-31.5c-0.2-1.2-1.2-2.1-2.4-2.1h-1.9c-3.3,0-6.4-1.3-8.7-3.6c-2.3-2.4-3.6-5.6-3.6-8.9&#xD;&#xA;&#x9;&#x9;c0-2.7,0.9-5.4,2.6-7.5c2.4-3.1,6-4.9,9.9-4.9c1.4,0.1,2.9,0.3,4.3,0.6c0.9,0.2,1.8-0.1,2.4-0.8c0.6-0.6,0.8-1.6,0.5-2.4&#xD;&#xA;&#x9;&#x9;c-2.4-7.3-2.9-15.1-1.5-22.7c0.1-0.3,0.2-0.6,0.2-0.9c0.6-2.5,1.5-4.9,2.7-7.1c0.1-0.1,0.2-0.3,0.2-0.4c0.8-1.5,1.7-3,2.6-4.4&#xD;&#xA;&#x9;&#x9;c2.7-3.5,5.8-6.8,9.1-9.8c1.7-1.6,3.8-2.9,6-3.6c3.5-0.9,6.2,0.7,10.7,3.6s9.7,6.4,17.4,6.4s13-3.6,17.4-6.4s7.1-4.5,10.5-3.7&#xD;&#xA;&#x9;&#x9;c2.3,0.8,4.4,2,6.2,3.7c3.2,2.9,6.2,6.2,8.7,9.7c1.1,1.4,2,2.9,2.8,4.4l0.2,0.3c1.2,2.3,2.1,4.8,2.7,7.4c0,0.2,0.1,0.3,0.1,0.5v0.2&#xD;&#xA;&#x9;&#x9;c1.4,7.6,0.9,15.4-1.5,22.8c-0.3,0.8-0.1,1.8,0.5,2.4c0.6,0.6,1.5,0.9,2.4,0.8c1.4-0.4,2.9-0.6,4.4-0.6c3.9,0,7.5,1.8,9.8,4.9&#xD;&#xA;&#x9;&#x9;c1.7,2.1,2.6,4.8,2.6,7.5C143.9,112,143.9,112.6,143.8,113.1L143.8,113.1z M142.7,98.3c-3.2-2.7-7.3-4.1-11.5-4.1H130&#xD;&#xA;&#x9;&#x9;c1.6-6.9,1.9-14.1,0.6-21.1c0-0.5-0.1-1-0.3-1.5c-0.7-2.8-1.7-5.5-3.1-8.1c-0.1-0.2-0.1-0.4-0.2-0.5c-0.9-1.8-2-3.4-3.2-5&#xD;&#xA;&#x9;&#x9;c-2.7-3.8-5.8-7.3-9.3-10.4c-2.3-2.2-5.1-3.9-8.2-4.8c-5.8-1.5-10.3,1.4-14.7,4.3s-8.4,5.5-14.6,5.5s-10.5-2.8-14.7-5.5&#xD;&#xA;&#x9;&#x9;s-8.8-5.8-14.7-4.3c-3,0.9-5.7,2.5-8,4.7c-3.6,3.2-6.9,6.7-9.8,10.6c-1.1,1.6-2.1,3.3-3,4.9c-0.1,0.2-0.2,0.4-0.2,0.6&#xD;&#xA;&#x9;&#x9;c-1.4,2.6-2.5,5.5-3.1,8.4c-0.1,0.1-0.1,0.2-0.1,0.3c-0.1,0.2-0.1,0.5-0.2,0.7c-1.3,7.1-1.1,14.4,0.6,21.4h-1.5&#xD;&#xA;&#x9;&#x9;c-4.1,0-8.1,1.5-11.2,4.1C3.3,82.7,2,56.3,13.4,36.1C21.4,21.9,38.9,5,76.9,5s55.5,16.9,63.5,31.1&#xD;&#xA;&#x9;&#x9;C152.2,56.9,150.4,82.8,142.7,98.3L142.7,98.3z"/>
        <path class="st5" d="M97.7,124c-0.9-0.1-1.8,0.4-2.3,1.2C87,138.9,70.5,137,69.8,136.9c-0.8-0.1-1.6,0.2-2.2,0.8&#xD;&#xA;&#x9;&#x9;c-0.6,0.6-0.8,1.5-0.5,2.3c0.1,0.4,2.6,8.9,9.8,12.4c2,0.9,4.2,1.4,6.4,1.4c2.8,0,5.6-0.7,8.1-1.9c12.9-5.5,11.1-19.6,8.4-26.3&#xD;&#xA;&#x9;&#x9;C99.4,124.7,98.6,124.1,97.7,124z M89.5,147.4c-4,1.7-7.5,1.9-10.4,0.5c-2.5-1.3-4.5-3.4-5.8-5.9c5.6-0.1,15.8-1.6,23.2-9.9&#xD;&#xA;&#x9;&#x9;C97.3,136.9,97.1,144.1,89.5,147.4z"/>
        <circle class="st6" cx="99.2" cy="101.7" r="7.4"/>
        <circle class="st7" cx="54.6" cy="101.7" r="7.4"/>
          </g>
  </svg>